<?xml version="1.0"?>
<svg xmlns="http://www.w3.org/2000/svg" width="512" height="512" viewBox="0 0 512 512"><g><path d="M248,216H176V144a8,8,0,0,0-8-8,88,88,0,1,0,88,88A8,8,0,0,0,248,216Zm-80,80a72,72,0,0,1-8-143.559V224a8,8,0,0,0,8,8h71.559A72.107,72.107,0,0,1,168,296Z"/><path d="M496,24H16a8,8,0,0,0-8,8V80a8,8,0,0,0,8,8H40V360H32a8,8,0,0,0-8,8v32a8,8,0,0,0,8,8H248v32a8.451,8.451,0,0,0,.12,1.34,24,24,0,1,0,15.76,0A8.451,8.451,0,0,0,264,440V408H480a8,8,0,0,0,8-8V368a8,8,0,0,0-8-8h-8V88h24a8,8,0,0,0,8-8V32A8,8,0,0,0,496,24ZM72,40H440V72H72ZM456,88V360H56V88ZM24,72V40H56V72ZM264,464a8,8,0,1,1-8-8A8.011,8.011,0,0,1,264,464Zm208-72H40V376H472ZM488,72H456V40h32Z"/><path d="M192,208h80a8,8,0,0,0,8-8,88.1,88.1,0,0,0-88-88,8,8,0,0,0-8,8v80A8,8,0,0,0,192,208Zm8-79.56A72.149,72.149,0,0,1,263.56,192H200Z"/><path d="M412,112H324a28.032,28.032,0,0,0-28,28V284a28.032,28.032,0,0,0,28,28h88a28.032,28.032,0,0,0,28-28V140A28.032,28.032,0,0,0,412,112Zm12,172a12.013,12.013,0,0,1-12,12H324a12.013,12.013,0,0,1-12-12V140a12.013,12.013,0,0,1,12-12h88a12.013,12.013,0,0,1,12,12Z"/><path d="M400,144H336a8,8,0,0,0,0,16h64a8,8,0,0,0,0-16Z"/><path d="M400,176H336a8,8,0,0,0,0,16h64a8,8,0,0,0,0-16Z"/><path d="M400,208H336a8,8,0,0,0,0,16h64a8,8,0,0,0,0-16Z"/><path d="M360,240H336a8,8,0,0,0,0,16h24a8,8,0,0,0,0-16Z"/><path d="M392,240h-8a8,8,0,0,0,0,16h8a8,8,0,0,0,0-16Z"/></g></svg>
